<svg id="Layer_1" data-name="Layer 1" xmlns="http://www.w3.org/2000/svg" width="32" height="32" viewBox="0 0 32 32"><path d="M24.47,5.71a1.88,1.88,0,1,0,1.88,1.88h0A1.88,1.88,0,0,0,24.47,5.71Z" style="fill:#262626"/><path d="M16.13,8.12A7.88,7.88,0,1,0,24,16h0A7.88,7.88,0,0,0,16.13,8.12Zm0,12.93A5.05,5.05,0,1,1,21.18,16h0A5.06,5.06,0,0,1,16.13,21.05Z" style="fill:#262626"/><path d="M22.39,32H9.61A9.65,9.65,0,0,1,0,22.39V9.61A9.65,9.65,0,0,1,9.61,0H22.39A9.65,9.65,0,0,1,32,9.61V22.39A9.65,9.65,0,0,1,22.39,32ZM9.61,3A6.61,6.61,0,0,0,3,9.61V22.39A6.61,6.61,0,0,0,9.61,29H22.39A6.62,6.62,0,0,0,29,22.4V9.61A6.61,6.61,0,0,0,22.39,3Z" style="fill:#262626"/></svg>