<svg id="Layer_1" data-name="Layer 1" xmlns="http://www.w3.org/2000/svg" width="35" height="35" viewBox="0 0 35 35"><circle cx="17.5" cy="17.5" r="17.5" style="fill:none"/><path d="M33.22,14.44,20.56,1.78a4.31,4.31,0,0,0-6.12,0L1.78,14.44a4.31,4.31,0,0,0,0,6.12L14.44,33.22a4.31,4.31,0,0,0,6.12,0L33.22,20.56A4.31,4.31,0,0,0,33.22,14.44Zm-6.73,5a2.84,2.84,0,0,1-4.66,2.18h0c-.12-.11-.25-.24-.36-.36l-2.65-2.54,2.54,2.65a2.8,2.8,0,0,1,1,2.18,2.84,2.84,0,0,1-2.84,2.84,2.79,2.79,0,0,1-2-.83,2.81,2.81,0,0,1-2,.83,2.84,2.84,0,0,1-2.18-4.66h0a4.08,4.08,0,0,1,.36-.36l2.54-2.65L13.59,21.3a2.8,2.8,0,0,1-2.18,1,2.84,2.84,0,0,1-2.84-2.84,2.78,2.78,0,0,1,.83-2,2.84,2.84,0,0,1,2-4.85,2.86,2.86,0,0,1,1.82.66h0a3.06,3.06,0,0,1,.36.36l2.65,2.54L13.7,13.53a2.8,2.8,0,0,1-1-2.18,2.84,2.84,0,0,1,2.84-2.84,2.78,2.78,0,0,1,2,.83,2.84,2.84,0,0,1,4.85,2,2.86,2.86,0,0,1-.66,1.82h0a4.08,4.08,0,0,1-.36.36l-2.54,2.65,2.65-2.54a2.8,2.8,0,0,1,2.18-1,2.84,2.84,0,0,1,2.84,2.84,2.79,2.79,0,0,1-.83,2A2.76,2.76,0,0,1,26.49,19.48Z" style="fill:#70b144"/></svg>