<svg id="Layer_1" data-name="Layer 1" xmlns="http://www.w3.org/2000/svg" width="35" height="35" viewBox="0 0 35 35"><circle cx="17.5" cy="17.5" r="17.5" style="fill:none"/><path d="M23.55,30.18c-4.34-.16-11.7-2.85-13.15-7.49-.73-2.36-.2-3.67.52-5.71,3.19-.05,7.21-.21,9.79-1.46,6.86-3.31-4.22-10.27-17.93-5-.53.21-.6.13-.88.56C-2,17,.06,23.53,5.52,27.34a19.76,19.76,0,0,0,8,3.3,23.25,23.25,0,0,0,9-.13l.55-.12.58-.21Z" style="fill:#58092c;fill-rule:evenodd"/><path d="M18.88,4h-2.5c-.46.2-3.41.26-4.92.88,1.37.15,2.67-.13,5.16.22,10.89,1.49,12.47,9.65,6.05,13.37a17.65,17.65,0,0,1-8.83,2c.14,2.18,2.1,3.59,3.83,4.27a17.48,17.48,0,0,0,7,1.1,26,26,0,0,0,6.94-1.12c1.1-.33,1-.3,2-2.12,1.7-3.28,2.14-6.17.62-9.6-2-4.56-7-7.51-11.72-8.51-.57-.12-1.15-.23-1.74-.31A8.75,8.75,0,0,1,18.88,4Z" style="fill:#58092c;fill-rule:evenodd"/></svg>