<svg id="Layer_1" data-name="Layer 1" xmlns="http://www.w3.org/2000/svg" width="32.06" height="32.13" viewBox="0 0 32.06 32.13"><path d="M0,32.13l2.3-8.58a15.87,15.87,0,1,1,6.32,6.27ZM9.05,26.6l.55.33a12.89,12.89,0,1,0-4.41-4.37l.33.55L4.24,27.93Z" transform="translate(0 0)" style="fill:#262626"/><path d="M22.05,18.1a2.69,2.69,0,0,0-2.27-.52c-.59.25-1,1.17-1.35,1.64a.56.56,0,0,1-.73.16A10.32,10.32,0,0,1,12.57,15a.62.62,0,0,1,.08-.85,3.54,3.54,0,0,0,.94-1.52,3.4,3.4,0,0,0-.42-1.79,4.29,4.29,0,0,0-1.32-2,1.82,1.82,0,0,0-2,.29A4,4,0,0,0,8.5,12.29a4.21,4.21,0,0,0,.12,1,8.22,8.22,0,0,0,1,2.22,17.48,17.48,0,0,0,1,1.53A15.39,15.39,0,0,0,15,21.09a13,13,0,0,0,2.72,1.29,6,6,0,0,0,3.16.5,3.8,3.8,0,0,0,2.87-2.14,1.82,1.82,0,0,0,.14-1.08C23.67,18.93,22.66,18.46,22.05,18.1Z" transform="translate(0 0)" style="fill:#262626;fill-rule:evenodd"/></svg>